<?xml version="1.0" encoding="UTF-8" standalone="no"?>
<svg id="ScatterPlotIcon" data-name="ScatterPlotIcon"
	xmlns="http://www.w3.org/2000/svg" width="500" height="500" viewBox="0 0 500 500">
	<defs>
		<style>.cls-1{fill:#231815;}</style>
	</defs>
	<rect class="cls-1" x="40" y="42.57" width="13" height="416.28" rx="6.5"/>
	<rect class="cls-1" x="33.73" y="37.46" width="10" height="35.27" rx="5" transform="translate(42.52 -12.15) rotate(38.33)"/>
	<rect class="cls-1" x="49.5" y="37.46" width="10" height="35.27" rx="5" transform="translate(131.42 64.51) rotate(141.67)"/>
	<rect class="cls-1" x="239.67" y="246.16" width="13" height="412.34" rx="6.5" transform="translate(698.5 206.16) rotate(90)"/>
	<rect class="cls-1" x="438.38" y="426.81" width="10" height="35.27" rx="5" transform="translate(1067.02 372.29) rotate(128.33)"/>
	<rect class="cls-1" x="438.38" y="442.58" width="10" height="35.27" rx="5" transform="translate(357.36 1093.45) rotate(-128.33)"/>
	<rect class="cls-1" x="252.75" y="11.07" width="13" height="458.49" rx="6.5" transform="translate(245.86 -112.93) rotate(45)"/>
	<circle class="cls-1" cx="135" cy="316.2" r="19.5"/>
	<circle class="cls-1" cx="308.77" cy="259.89" r="19.5"/>
	<circle class="cls-1" cx="226.67" cy="319.98" r="19.5"/>
	<circle class="cls-1" cx="173.91" cy="392.93" r="19.5"/>
	<circle class="cls-1" cx="167.93" cy="220.22" r="19.5"/>
	<circle class="cls-1" cx="321.86" cy="107.07" r="19.5"/>
	<circle class="cls-1" cx="401.19" cy="228.63" r="19.5"/>
	<circle class="cls-1" cx="251.37" cy="175.47" r="19.5"/>
	<circle class="cls-1" cx="415.82" cy="135" r="19.5"/>
</svg>